# xmcd
#
# Track frame offsets:
#	150
#	10181
#	28448
#	39459
#	75091
#	93436
#	103374
#	111857
#	154556
#	174989
#
# Disc length: 2477 seconds
#
# Revision: 4
# Processed by: cddbd v1.5.2PL0 Copyright (c) Steve Scherf et al.
# Submitted via: audiograbber 1.83.01
#
DISCID=6e09ab0a
DTITLE=Marillion - Misplaced Childhood [remastered 2017]
DYEAR=1985
DGENRE=Progressive Rock
TTITLE0=Pseudo Silk Kimono
TTITLE1=Kayleigh
TTITLE2=Lavender
TTITLE3=Bitter Suite - I. Brief Encounter II. Lost Weekend III. Blue Angel
TTITLE4=Heart Of Lothian - I. Wide Boy II. Curtain Call
TTITLE5=Waterhole (Expresso Bongo)
TTITLE6=Lords Of The Backstage
TTITLE7=Blind Curve - I. Vocal Under A Bloodlight II. Passing Strangers III. My
TTITLE7=lo IV. Perimeter Walk V. Threshold
TTITLE8=Childhoods End?
TTITLE9=White Feather
EXTD=
EXTT0=
EXTT1=
EXTT2=
EXTT3=
EXTT4=
EXTT5=
EXTT6=
EXTT7=
EXTT8=
EXTT9=
PLAYORDER=
